# xmcd
#
# Track frame offsets:
#	150
#	14391
#	29419
#	44527
#	59996
#	73276
#	87721
#	102171
#	115358
#	131598
#
# Disc length: 1951 seconds
#
# Revision: 0
# Processed by: cddbd v1.5.2PL0 Copyright (c) Steve Scherf et al.
# Submitted via: EasyCDDAExtractor 16.0.6.1
#
DISCID=9b079d0a
DTITLE=Συλλογικός δίσκος - Λαϊκό τραγούδι 1954-1967, 1960-4
DYEAR=2008
DGENRE=Λαϊκή
TTITLE0=Αγγελόπουλος Μανώλης - Γλυκειά μου μάννα σήμερα [Χρήστος Κολοκοτρώνης]
TTITLE1=Μπιθικώτσης Γρηγόρης-Τσιτσάνης Βασίλης - Κάτσε ν' ακούσεις μιά πενιά [
TTITLE1=Βασίλης Τσιτσάνης]
TTITLE2=Καζαντζίδης Στέλιος - Μέσα στον κόσμο ορφανός [Στέλιος Καζαντζίδης]
TTITLE3=Πάνου Πόλυ-Μπιθικώτσης Γρηγόρης - Ένα σφάλμα έκανα [Θεόδωρος Δερβενιώτ
TTITLE3=ης]
TTITLE4=Καζαντζίδης Στέλιος-Μαρινέλλα - Αθήνα, Πειραιάς, Θεσσαλονίκη [Στέλιος 
TTITLE4=Καζαντζίδης-Βασίλης Καραπατάκης]
TTITLE5=Μπιθικώτσης Γρηγόρης-Τσιτσάνης Βασίλης - Η δροσούλα [Βασίλης Τσιτσάνης
TTITLE5=]
TTITLE6=Γαβαλάς Πάνος - Μιά τσιγγάνα αναστενάζει [Βασίλης Καραπατάκης-Θ. Κολοκ
TTITLE6=οτρώνης]
TTITLE7=Γαβαλάς Πάνος-Κούρτη Ρία - Σιμέλα [Ν. Μυλωνάς-Δ. Λοϊζος]
TTITLE8=Μπιθικώτσης Γρηγόρης - Βρέχει ο ουρανός και βρέχομαι [Κώστας Καπλάνης-
TTITLE8=Ευτ. Παπαγιαννοπούλου]
TTITLE9=Αγγελόπουλος Μανώλης - Μαριτάνα [Μπάμπης Μπακάλης-Δημήτρης Γκούτης]
EXTD=
EXTT0=
EXTT1=
EXTT2=
EXTT3=
EXTT4=
EXTT5=
EXTT6=
EXTT7=
EXTT8=
EXTT9=
PLAYORDER=
